<?xml version="1.0" standalone="no"?><!DOCTYPE svg PUBLIC "-//W3C//DTD SVG 1.1//EN" "http://www.w3.org/Graphics/SVG/1.1/DTD/svg11.dtd"><svg t="1532263686031" class="icon" style="" viewBox="0 0 1026 1024" version="1.1" xmlns="http://www.w3.org/2000/svg" p-id="1143" xmlns:xlink="http://www.w3.org/1999/xlink" width="200.390625" height="200"><defs><style type="text/css"></style></defs><path d="M981.035477 758.537463c-26.597403-26.085914-60.355644-50.637363-83.372628-67.004995-31.200799-21.994006-63.936064-42.453546-92.57942-57.286714-45.010989-23.528472-63.936064-26.597403-74.165835-26.597402-19.948052 0-37.338661 10.741259-52.171828 31.712287-9.718282 14.321678-17.390609 31.712288-25.062937 49.102897-5.114885 12.275724-13.298701 30.689311-19.436563 38.361639l-2.045954 2.557442-3.068931-0.511488c-6.137862-1.534466-29.666334-8.695305-80.303697-42.965035-39.896104-27.108891-83.372627-62.401598-116.61938-94.625375-31.712288-32.735265-67.004995-76.211788-94.625375-116.107892-34.26973-50.637363-41.942058-74.165834-42.965035-80.303696l-0.511488-3.068931 2.557442-2.045954c7.672328-6.137862 26.085914-13.81019 38.361639-19.436564 16.879121-7.160839 34.26973-14.833167 49.102897-25.062937 20.971029-14.321678 31.712288-32.223776 31.712287-52.171828 0-10.22977-2.557443-29.154845-26.597402-74.165834-14.833167-28.131868-35.292707-60.867133-57.286714-92.579421-16.367632-23.528472-41.430569-56.775225-67.004995-83.372627-28.643357-29.666334-49.614386-42.453546-69.050949-42.453546-48.591409 0-106.901099 72.631369-123.780219 95.136863-21.482517 28.643357-72.11988 103.320679-72.119881 173.394605 0 65.470529 43.988012 150.377622 80.815185 210.733267 49.614386 80.815185 118.665335 167.768232 193.854146 244.491508l25.062937 25.062937c77.234765 75.188811 164.187812 143.728272 244.491509 193.854146 59.844156 36.827173 145.262737 80.815185 210.733266 80.815185 29.154845 0 59.332667-8.695305 86.953047-20.971029v-0.511488c8.183816-4.091908 14.321678-12.787213 14.321679-22.505495 0-13.81019-11.252747-25.574426-25.574426-25.574426-4.091908 0-7.672328 1.022977-11.252747 2.557443-23.528472 10.22977-46.033966 15.344655-63.936064 15.344655-41.430569 0-108.435564-26.597403-184.135864-73.142857-77.746254-47.568432-161.118881-114.061938-235.796204-186.693306l-24.03996-24.039961c-72.631369-74.677323-139.124875-158.04995-186.693307-235.796203-46.545455-75.7003-73.142857-142.705295-73.142857-184.135864 0-36.827173 22.505495-88.999001 59.844156-139.636364 16.367632-21.994006 34.26973-42.453546 51.148851-56.775225 17.902098-15.856144 28.643357-19.436563 31.200799-20.45954l2.045954-0.511489 2.045954 1.022977c11.252747 5.114885 46.033966 34.781219 97.182818 109.458542 19.436563 28.131868 37.338661 57.286713 50.637362 82.34965 16.367632 31.200799 19.436563 45.010989 19.948052 48.591409l0.511489 2.045954-1.022977 1.534465c-1.022977 2.045954-4.603397 5.626374-13.81019 11.252747-9.718282 6.137862-23.016983 11.252747-35.292707 16.879121-14.833167 6.649351-30.689311 13.298701-42.965035 21.482518-19.436563 12.787213-28.643357 28.131868-28.643357 46.033966 0 9.206793 0.511489 36.315684 52.683317 112.527472 29.154845 42.453546 66.493506 88.487512 100.251748 123.268732l0.511488 0.511488c34.781219 33.758242 80.815185 71.608392 123.268732 100.251748 76.211788 51.66034 103.320679 52.683317 112.527472 52.683317h1.022977c17.390609 0 32.735265-9.718282 45.010989-28.643357 8.183816-12.275724 14.833167-27.62038 21.482518-42.965035 5.626374-12.275724 10.741259-25.574426 16.879121-35.292707 5.114885-8.695305 8.695305-12.275724 11.252747-13.81019l1.534465-1.022977 2.045954 0.511489c3.58042 0.511489 16.879121 3.58042 48.591409 19.948052 24.551449 12.787213 54.217782 31.200799 82.34965 50.637362 74.677323 51.148851 103.832168 85.93007 109.458542 97.182818l1.022977 2.045954-0.511489 2.045954c-1.022977 2.557443-5.114885 13.298701-20.45954 31.200799-5.626374 6.649351-11.764236 13.298701-18.925075 19.948052l-0.511489 0.511488c-4.603397 4.603397-7.160839 10.741259-7.160839 17.39061 0 13.81019 11.252747 25.574426 25.574426 25.574425 7.160839 0 13.298701-2.557443 17.902098-7.160839 26.597403-25.574426 55.240759-59.844156 55.240759-90.021978-2.045954-20.971029-15.344655-42.453546-44.4995-70.585414z" p-id="1144" fill="#487cc0"></path></svg>